<svg xmlns="http://www.w3.org/2000/svg" xmlns:xlink="http://www.w3.org/1999/xlink" width="500" zoomAndPan="magnify" viewBox="0 0 375 374.999991" height="500" preserveAspectRatio="xMidYMid meet" version="1.0"><defs><g/><clipPath id="6276f9e4e2"><path d="M 84 83.878906 L 125.019531 83.878906 L 125.019531 206.878906 L 84 206.878906 Z M 84 83.878906 " clip-rule="nonzero"/></clipPath><clipPath id="1a357f8f02"><path d="M 242.046875 83.878906 L 282.945312 83.878906 L 282.945312 206.878906 L 242.046875 206.878906 Z M 242.046875 83.878906 " clip-rule="nonzero"/></clipPath><clipPath id="3991de7705"><path d="M 138.601562 98.773438 L 227 98.773438 L 227 192.523438 L 138.601562 192.523438 Z M 138.601562 98.773438 " clip-rule="nonzero"/></clipPath></defs><g clip-path="url(#6276f9e4e2)"><path fill="#ffffff" d="M 98.175781 187.621094 C 98.175781 177.277344 99.507812 169.613281 99.507812 160.035156 C 99.507812 154.480469 96.082031 149.691406 84.089844 149.691406 L 84.089844 140.6875 C 96.082031 140.300781 99.507812 135.703125 99.507812 130.53125 C 99.507812 120.570312 98.175781 112.910156 98.175781 102.753906 C 98.175781 87.8125 104.269531 83.597656 116.835938 83.597656 L 125.59375 83.597656 L 125.59375 92.601562 L 119.308594 92.601562 C 111.503906 92.601562 109.410156 94.710938 109.410156 103.328125 C 109.410156 112.140625 109.980469 119.613281 109.980469 129.191406 C 109.980469 138.578125 108.078125 142.984375 100.269531 144.707031 L 100.269531 145.476562 C 108.078125 147.199219 109.980469 151.988281 109.980469 160.992188 C 109.980469 170.570312 109.410156 178.234375 109.410156 186.855469 C 109.410156 195.28125 111.503906 197.582031 119.308594 197.582031 L 125.59375 197.582031 L 125.59375 206.585938 L 116.835938 206.585938 C 104.269531 206.585938 98.175781 202.5625 98.175781 187.621094 Z M 98.175781 187.621094 " fill-opacity="1" fill-rule="nonzero"/></g><g clip-path="url(#1a357f8f02)"><path fill="#ffffff" d="M 268.890625 187.621094 C 268.890625 177.277344 267.558594 169.613281 267.558594 160.035156 C 267.558594 154.480469 270.984375 149.691406 282.980469 149.691406 L 282.980469 140.6875 C 270.984375 140.300781 267.558594 135.703125 267.558594 130.53125 C 267.558594 120.570312 268.890625 112.910156 268.890625 102.753906 C 268.890625 87.8125 262.796875 83.597656 250.234375 83.597656 L 241.476562 83.597656 L 241.476562 92.601562 L 247.757812 92.601562 C 255.5625 92.601562 257.65625 94.710938 257.65625 103.328125 C 257.65625 112.140625 257.085938 119.613281 257.085938 129.191406 C 257.085938 138.578125 258.992188 142.984375 266.796875 144.707031 L 266.796875 145.476562 C 258.992188 147.199219 257.085938 151.988281 257.085938 160.992188 C 257.085938 170.570312 257.65625 178.234375 257.65625 186.855469 C 257.65625 195.28125 255.5625 197.582031 247.757812 197.582031 L 241.476562 197.582031 L 241.476562 206.585938 L 250.234375 206.585938 C 262.796875 206.585938 268.890625 202.5625 268.890625 187.621094 Z M 268.890625 187.621094 " fill-opacity="1" fill-rule="nonzero"/></g><g clip-path="url(#3991de7705)"><path fill="#19cf16" d="M 227 160.089844 L 227 192.265625 L 183.007812 192.265625 C 177.59375 192.265625 172.503906 190.15625 168.671875 186.328125 C 164.84375 182.5 162.734375 177.40625 162.734375 171.992188 C 162.734375 169.332031 163.246094 166.738281 164.257812 164.277344 C 165.269531 161.816406 166.730469 159.613281 168.601562 157.726562 L 177.046875 149.199219 L 147.132812 119.285156 L 147.132812 192.265625 L 138.664062 192.265625 L 138.664062 98.847656 L 183 143.183594 L 226.980469 98.773438 L 226.980469 148.753906 L 218.511719 148.753906 L 218.511719 119.355469 L 174.621094 163.679688 C 172.414062 165.90625 171.199219 168.859375 171.199219 171.992188 C 171.199219 178.503906 176.5 183.800781 183.007812 183.800781 L 218.535156 183.800781 L 218.535156 168.554688 L 186.574219 168.554688 L 194.867188 160.089844 Z M 227 160.089844 " fill-opacity="1" fill-rule="nonzero"/></g><g fill="#19cf16" fill-opacity="1"><g transform="translate(44.942499, 236.974993)"><g><path d="M 19.296875 -12.203125 C 19.109375 -11.859375 19.015625 -11.03125 19.015625 -9.71875 L 19.015625 -5 C 19.015625 -3.570312 18.269531 -2.332031 16.78125 -1.28125 C 15.25 -0.175781 13.375 0.375 11.15625 0.375 C 8.070312 0.375 5.613281 -0.59375 3.78125 -2.53125 C 2 -4.375 1.109375 -6.726562 1.109375 -9.59375 C 1.109375 -12.632812 2.015625 -15.171875 3.828125 -17.203125 C 5.835938 -19.484375 8.613281 -20.625 12.15625 -20.625 C 14.519531 -20.625 16.394531 -20.164062 17.78125 -19.25 L 17.53125 -14.765625 L 17.40625 -14.734375 C 17.050781 -15.347656 16.351562 -15.851562 15.3125 -16.25 C 14.320312 -16.625 13.28125 -16.8125 12.1875 -16.8125 C 11.09375 -16.8125 10.132812 -16.640625 9.3125 -16.296875 C 8.5 -15.953125 7.8125 -15.460938 7.25 -14.828125 C 6.050781 -13.515625 5.453125 -11.785156 5.453125 -9.640625 C 5.453125 -7.753906 5.976562 -6.242188 7.03125 -5.109375 C 8.082031 -3.984375 9.441406 -3.421875 11.109375 -3.421875 C 12.941406 -3.421875 14.179688 -3.898438 14.828125 -4.859375 C 15.023438 -5.160156 15.125 -5.503906 15.125 -5.890625 L 15.125 -8.421875 L 13.171875 -8.421875 C 12.109375 -8.421875 11.535156 -8.328125 11.453125 -8.140625 L 11.40625 -8.15625 L 11.265625 -12.125 C 11.546875 -12.050781 12.695312 -12.015625 14.71875 -12.015625 L 16.515625 -12.015625 C 17.628906 -12.015625 18.539062 -12.085938 19.25 -12.234375 Z M 19.296875 -12.203125 "/></g></g></g><g fill="#19cf16" fill-opacity="1"><g transform="translate(65.703453, 236.974993)"><g><path d="M 14.15625 -20.3125 C 14.78125 -20.269531 15.300781 -20.25 15.71875 -20.25 L 16.984375 -20.25 C 17.410156 -20.25 17.859375 -20.285156 18.328125 -20.359375 L 18.328125 -7.78125 C 18.328125 -5.28125 17.570312 -3.273438 16.0625 -1.765625 C 14.625 -0.335938 12.828125 0.375 10.671875 0.375 C 8.304688 0.375 6.394531 -0.238281 4.9375 -1.46875 C 3.300781 -2.84375 2.484375 -4.828125 2.484375 -7.421875 L 2.484375 -20.3125 C 3.328125 -20.269531 4.117188 -20.25 4.859375 -20.25 C 5.609375 -20.25 6.226562 -20.285156 6.71875 -20.359375 L 6.71875 -7.234375 C 6.71875 -5.953125 7.109375 -4.957031 7.890625 -4.25 C 8.617188 -3.59375 9.53125 -3.265625 10.625 -3.265625 C 12.25 -3.265625 13.328125 -4.097656 13.859375 -5.765625 C 14.054688 -6.367188 14.15625 -7.109375 14.15625 -7.984375 Z M 14.15625 -20.3125 "/></g></g></g><g fill="#19cf16" fill-opacity="1"><g transform="translate(86.52529, 236.974993)"><g><path d="M 14.84375 -19.109375 L 14.546875 -14.640625 L 14.4375 -14.609375 C 13.6875 -15.734375 12.410156 -16.460938 10.609375 -16.796875 C 10.035156 -16.910156 9.488281 -16.96875 8.96875 -16.96875 C 8.445312 -16.96875 8 -16.921875 7.625 -16.828125 C 7.257812 -16.742188 6.945312 -16.613281 6.6875 -16.4375 C 6.125 -16.070312 5.84375 -15.59375 5.84375 -15 C 5.84375 -14.226562 6.085938 -13.648438 6.578125 -13.265625 C 7.179688 -12.804688 8.1875 -12.484375 9.59375 -12.296875 C 11.007812 -12.109375 12.144531 -11.847656 13 -11.515625 C 13.851562 -11.191406 14.550781 -10.785156 15.09375 -10.296875 C 16.132812 -9.359375 16.65625 -8.035156 16.65625 -6.328125 C 16.65625 -4.097656 15.8125 -2.378906 14.125 -1.171875 C 12.6875 -0.140625 10.867188 0.375 8.671875 0.375 C 6.910156 0.375 5.164062 0.0390625 3.4375 -0.625 C 2.875 -0.84375 2.378906 -1.101562 1.953125 -1.40625 L 2.109375 -6.484375 L 2.171875 -6.53125 C 3.429688 -4.351562 5.5 -3.265625 8.375 -3.265625 C 10.414062 -3.265625 11.765625 -3.757812 12.421875 -4.75 C 12.640625 -5.082031 12.75 -5.453125 12.75 -5.859375 C 12.75 -6.273438 12.679688 -6.617188 12.546875 -6.890625 C 12.421875 -7.160156 12.207031 -7.390625 11.90625 -7.578125 C 11.3125 -7.960938 10.316406 -8.21875 8.921875 -8.34375 C 7.535156 -8.476562 6.398438 -8.726562 5.515625 -9.09375 C 4.640625 -9.46875 3.9375 -9.921875 3.40625 -10.453125 C 2.457031 -11.429688 1.984375 -12.789062 1.984375 -14.53125 C 1.984375 -16.34375 2.613281 -17.804688 3.875 -18.921875 C 5.164062 -20.054688 6.90625 -20.625 9.09375 -20.625 C 11.28125 -20.625 13.195312 -20.117188 14.84375 -19.109375 Z M 14.84375 -19.109375 "/></g></g></g><g fill="#19cf16" fill-opacity="1"><g transform="translate(104.683515, 236.974993)"><g><path d="M 9.921875 0.09375 C 9.429688 0.03125 8.179688 0 6.171875 0 L 5.671875 0 L 5.671875 -16.828125 L 2.65625 -16.828125 C 1.769531 -16.828125 1.242188 -16.78125 1.078125 -16.6875 C 0.921875 -16.601562 0.796875 -16.523438 0.703125 -16.453125 L 0.65625 -16.46875 L 0.65625 -20.359375 L 0.703125 -20.40625 C 1.035156 -20.300781 1.9375 -20.25 3.40625 -20.25 L 12.953125 -20.25 C 13.847656 -20.25 14.375 -20.289062 14.53125 -20.375 C 14.695312 -20.46875 14.828125 -20.550781 14.921875 -20.625 L 14.96875 -20.609375 L 14.96875 -16.71875 L 14.921875 -16.671875 C 14.578125 -16.773438 13.671875 -16.828125 12.203125 -16.828125 L 9.921875 -16.828125 Z M 9.921875 0.09375 "/></g></g></g><g fill="#19cf16" fill-opacity="1"><g transform="translate(120.299893, 236.974993)"><g><path d="M 4.09375 0.125 C 3.21875 0.0390625 2.195312 0 1.03125 0 L -0.171875 0 L 6.453125 -18.546875 C 6.742188 -19.378906 6.890625 -19.863281 6.890625 -20 C 6.890625 -20.144531 6.882812 -20.234375 6.875 -20.265625 L 6.890625 -20.296875 C 7.554688 -20.265625 8.257812 -20.25 9 -20.25 C 9.601562 -20.25 10.332031 -20.257812 11.1875 -20.28125 L 11.203125 -20.25 C 11.179688 -20.207031 11.171875 -20.148438 11.171875 -20.078125 C 11.171875 -19.878906 11.320312 -19.363281 11.625 -18.53125 L 18.390625 0.046875 C 18.179688 0.0351562 17.941406 0.03125 17.671875 0.03125 C 17.671875 0.03125 17.40625 0.0195312 16.875 0 C 16.625 0 16.394531 0 16.1875 0 L 13.828125 0 L 12.40625 -4.390625 L 5.53125 -4.390625 Z M 11.21875 -8.03125 L 8.921875 -15.109375 L 6.6875 -8.03125 Z M 11.21875 -8.03125 "/></g></g></g><g fill="#19cf16" fill-opacity="1"><g transform="translate(138.519, 236.974993)"><g><path d="M 11.28125 0.0625 C 10.957031 0.0195312 10.425781 0 9.6875 0 L 8 0 C 7.726562 0 7.484375 0.0078125 7.265625 0.03125 L 7.25 0 C 7.289062 -0.0703125 7.3125 -0.148438 7.3125 -0.234375 C 7.3125 -0.328125 7.300781 -0.425781 7.28125 -0.53125 C 7.269531 -0.632812 7.226562 -0.816406 7.15625 -1.078125 C 7.082031 -1.335938 6.96875 -1.71875 6.8125 -2.21875 L 6.171875 -4.265625 L 0.515625 -20.296875 C 1.148438 -20.265625 1.953125 -20.25 2.921875 -20.25 C 3.898438 -20.25 4.523438 -20.285156 4.796875 -20.359375 L 9.375 -6.53125 L 13.390625 -20.296875 C 14.003906 -20.265625 14.753906 -20.25 15.640625 -20.25 C 16.859375 -20.25 17.570312 -20.285156 17.78125 -20.359375 L 12.21875 -4.3125 C 12.21875 -4.3125 12.039062 -3.71875 11.6875 -2.53125 C 11.394531 -1.507812 11.25 -0.847656 11.25 -0.546875 C 11.25 -0.253906 11.269531 -0.0664062 11.3125 0.015625 Z M 11.28125 0.0625 "/></g></g></g><g fill="#19cf16" fill-opacity="1"><g transform="translate(156.677225, 236.974993)"><g><path d="M 4.265625 -2.40625 C 3.347656 -3.289062 2.625 -4.347656 2.09375 -5.578125 C 1.5625 -6.816406 1.296875 -8.175781 1.296875 -9.65625 C 1.296875 -11.132812 1.539062 -12.53125 2.03125 -13.84375 C 2.53125 -15.164062 3.242188 -16.328125 4.171875 -17.328125 C 5.097656 -18.335938 6.210938 -19.140625 7.515625 -19.734375 C 8.828125 -20.328125 10.296875 -20.625 11.921875 -20.625 C 14.722656 -20.625 17.082031 -19.738281 19 -17.96875 C 21.039062 -16.082031 22.0625 -13.535156 22.0625 -10.328125 C 22.0625 -7.222656 21.007812 -4.644531 18.90625 -2.59375 C 17.601562 -1.320312 16.054688 -0.445312 14.265625 0.03125 C 13.378906 0.257812 12.34375 0.375 11.15625 0.375 C 9.976562 0.375 8.765625 0.132812 7.515625 -0.34375 C 6.273438 -0.832031 5.191406 -1.519531 4.265625 -2.40625 Z M 5.53125 -9.859375 C 5.53125 -8.921875 5.6875 -8.054688 6 -7.265625 C 6.3125 -6.472656 6.75 -5.789062 7.3125 -5.21875 C 8.5 -4.019531 10.023438 -3.421875 11.890625 -3.421875 C 13.660156 -3.421875 15.085938 -3.992188 16.171875 -5.140625 C 17.265625 -6.328125 17.8125 -7.945312 17.8125 -10 C 17.8125 -11.925781 17.285156 -13.535156 16.234375 -14.828125 C 15.109375 -16.203125 13.566406 -16.890625 11.609375 -16.890625 C 9.710938 -16.890625 8.207031 -16.191406 7.09375 -14.796875 C 6.050781 -13.484375 5.53125 -11.835938 5.53125 -9.859375 Z M 5.53125 -9.859375 "/></g></g></g><g fill="#f6f6f6" fill-opacity="1"><g transform="translate(123.888952, 270.606575)"><g><path d="M 2.890625 -10.5 C 3.722656 -10.5 4.320312 -10.269531 4.6875 -9.8125 C 5.0625 -9.363281 5.25 -8.738281 5.25 -7.9375 L 5.25 -6.671875 C 5.25 -5.835938 5.050781 -5.207031 4.65625 -4.78125 C 4.257812 -4.351562 3.644531 -4.140625 2.8125 -4.140625 L 1.765625 -4.140625 L 1.765625 0 L 0.59375 0 L 0.59375 -10.5 Z M 2.8125 -5.1875 C 3.25 -5.1875 3.570312 -5.289062 3.78125 -5.5 C 3.988281 -5.71875 4.09375 -6.082031 4.09375 -6.59375 L 4.09375 -8 C 4.09375 -8.476562 4 -8.835938 3.8125 -9.078125 C 3.632812 -9.316406 3.328125 -9.4375 2.890625 -9.4375 L 1.765625 -9.4375 L 1.765625 -5.1875 Z M 2.8125 -5.1875 "/></g></g></g><g fill="#f6f6f6" fill-opacity="1"><g transform="translate(135.498948, 270.606575)"><g><path d="M 2.9375 -10.5 C 3.769531 -10.5 4.367188 -10.289062 4.734375 -9.875 C 5.097656 -9.46875 5.28125 -8.875 5.28125 -8.09375 L 5.28125 -7.25 C 5.28125 -6.664062 5.175781 -6.191406 4.96875 -5.828125 C 4.757812 -5.472656 4.425781 -5.222656 3.96875 -5.078125 C 4.445312 -4.941406 4.785156 -4.6875 4.984375 -4.3125 C 5.191406 -3.9375 5.296875 -3.460938 5.296875 -2.890625 L 5.296875 -1.265625 C 5.296875 -1.035156 5.304688 -0.8125 5.328125 -0.59375 C 5.347656 -0.375 5.40625 -0.175781 5.5 0 L 4.3125 0 C 4.25 -0.144531 4.203125 -0.304688 4.171875 -0.484375 C 4.140625 -0.660156 4.125 -0.925781 4.125 -1.28125 L 4.125 -2.921875 C 4.125 -3.515625 3.988281 -3.921875 3.71875 -4.140625 C 3.457031 -4.367188 3.082031 -4.484375 2.59375 -4.484375 L 1.765625 -4.484375 L 1.765625 0 L 0.59375 0 L 0.59375 -10.5 Z M 2.640625 -5.546875 C 3.109375 -5.546875 3.472656 -5.644531 3.734375 -5.84375 C 3.992188 -6.039062 4.125 -6.421875 4.125 -6.984375 L 4.125 -8 C 4.125 -8.476562 4.03125 -8.835938 3.84375 -9.078125 C 3.65625 -9.316406 3.34375 -9.4375 2.90625 -9.4375 L 1.765625 -9.4375 L 1.765625 -5.546875 Z M 2.640625 -5.546875 "/></g></g></g><g fill="#f6f6f6" fill-opacity="1"><g transform="translate(147.408939, 270.606575)"><g><path d="M 0.515625 -7.96875 C 0.515625 -8.78125 0.707031 -9.421875 1.09375 -9.890625 C 1.488281 -10.367188 2.09375 -10.609375 2.90625 -10.609375 C 3.71875 -10.609375 4.320312 -10.367188 4.71875 -9.890625 C 5.125 -9.421875 5.328125 -8.78125 5.328125 -7.96875 L 5.328125 -2.53125 C 5.328125 -1.726562 5.125 -1.085938 4.71875 -0.609375 C 4.320312 -0.128906 3.71875 0.109375 2.90625 0.109375 C 2.09375 0.109375 1.488281 -0.128906 1.09375 -0.609375 C 0.707031 -1.085938 0.515625 -1.726562 0.515625 -2.53125 Z M 1.671875 -2.46875 C 1.671875 -1.988281 1.769531 -1.613281 1.96875 -1.34375 C 2.175781 -1.082031 2.488281 -0.953125 2.90625 -0.953125 C 3.34375 -0.953125 3.660156 -1.082031 3.859375 -1.34375 C 4.054688 -1.613281 4.15625 -1.988281 4.15625 -2.46875 L 4.15625 -8.03125 C 4.15625 -8.507812 4.054688 -8.878906 3.859375 -9.140625 C 3.660156 -9.410156 3.34375 -9.546875 2.90625 -9.546875 C 2.488281 -9.546875 2.175781 -9.410156 1.96875 -9.140625 C 1.769531 -8.878906 1.671875 -8.507812 1.671875 -8.03125 Z M 1.671875 -2.46875 "/></g></g></g><g fill="#f6f6f6" fill-opacity="1"><g transform="translate(159.243937, 270.606575)"><g><path d="M 2.859375 -10.609375 C 3.671875 -10.609375 4.269531 -10.367188 4.65625 -9.890625 C 5.039062 -9.410156 5.234375 -8.769531 5.234375 -7.96875 L 5.234375 -7.0625 L 4.125 -7.0625 L 4.125 -8.03125 C 4.125 -8.507812 4.023438 -8.878906 3.828125 -9.140625 C 3.640625 -9.410156 3.328125 -9.546875 2.890625 -9.546875 C 2.472656 -9.546875 2.164062 -9.410156 1.96875 -9.140625 C 1.769531 -8.878906 1.671875 -8.507812 1.671875 -8.03125 L 1.671875 -2.46875 C 1.671875 -1.988281 1.769531 -1.613281 1.96875 -1.34375 C 2.164062 -1.082031 2.472656 -0.953125 2.890625 -0.953125 C 3.328125 -0.953125 3.640625 -1.082031 3.828125 -1.34375 C 4.023438 -1.613281 4.125 -1.988281 4.125 -2.46875 L 4.125 -4.578125 L 3.046875 -4.578125 L 3.046875 -5.625 L 5.234375 -5.625 L 5.234375 -2.53125 C 5.234375 -1.726562 5.039062 -1.085938 4.65625 -0.609375 C 4.269531 -0.128906 3.671875 0.109375 2.859375 0.109375 C 2.066406 0.109375 1.476562 -0.128906 1.09375 -0.609375 C 0.707031 -1.085938 0.515625 -1.726562 0.515625 -2.53125 L 0.515625 -7.96875 C 0.515625 -8.363281 0.5625 -8.722656 0.65625 -9.046875 C 0.75 -9.378906 0.890625 -9.660156 1.078125 -9.890625 C 1.273438 -10.117188 1.519531 -10.296875 1.8125 -10.421875 C 2.113281 -10.546875 2.460938 -10.609375 2.859375 -10.609375 Z M 2.859375 -10.609375 "/></g></g></g><g fill="#f6f6f6" fill-opacity="1"><g transform="translate(170.988928, 270.606575)"><g><path d="M 2.9375 -10.5 C 3.769531 -10.5 4.367188 -10.289062 4.734375 -9.875 C 5.097656 -9.46875 5.28125 -8.875 5.28125 -8.09375 L 5.28125 -7.25 C 5.28125 -6.664062 5.175781 -6.191406 4.96875 -5.828125 C 4.757812 -5.472656 4.425781 -5.222656 3.96875 -5.078125 C 4.445312 -4.941406 4.785156 -4.6875 4.984375 -4.3125 C 5.191406 -3.9375 5.296875 -3.460938 5.296875 -2.890625 L 5.296875 -1.265625 C 5.296875 -1.035156 5.304688 -0.8125 5.328125 -0.59375 C 5.347656 -0.375 5.40625 -0.175781 5.5 0 L 4.3125 0 C 4.25 -0.144531 4.203125 -0.304688 4.171875 -0.484375 C 4.140625 -0.660156 4.125 -0.925781 4.125 -1.28125 L 4.125 -2.921875 C 4.125 -3.515625 3.988281 -3.921875 3.71875 -4.140625 C 3.457031 -4.367188 3.082031 -4.484375 2.59375 -4.484375 L 1.765625 -4.484375 L 1.765625 0 L 0.59375 0 L 0.59375 -10.5 Z M 2.640625 -5.546875 C 3.109375 -5.546875 3.472656 -5.644531 3.734375 -5.84375 C 3.992188 -6.039062 4.125 -6.421875 4.125 -6.984375 L 4.125 -8 C 4.125 -8.476562 4.03125 -8.835938 3.84375 -9.078125 C 3.65625 -9.316406 3.34375 -9.4375 2.90625 -9.4375 L 1.765625 -9.4375 L 1.765625 -5.546875 Z M 2.640625 -5.546875 "/></g></g></g><g fill="#f6f6f6" fill-opacity="1"><g transform="translate(182.898919, 270.606575)"><g><path d="M 1.78125 -2.109375 L 1.375 0 L 0.296875 0 L 2.3125 -10.5 L 4 -10.5 L 6.015625 0 L 4.84375 0 L 4.4375 -2.109375 Z M 1.9375 -3.125 L 4.28125 -3.125 L 3.09375 -9.1875 Z M 1.9375 -3.125 "/></g></g></g><g fill="#f6f6f6" fill-opacity="1"><g transform="translate(195.228909, 270.606575)"><g><path d="M 4.46875 -0.015625 L 3.34375 -0.015625 L 1.609375 -8.375 L 1.609375 0 L 0.578125 0 L 0.578125 -10.5 L 2.21875 -10.5 L 3.9375 -2.109375 L 5.609375 -10.5 L 7.25 -10.5 L 7.25 0 L 6.140625 0 L 6.140625 -8.4375 Z M 4.46875 -0.015625 "/></g></g></g><g fill="#f6f6f6" fill-opacity="1"><g transform="translate(209.073901, 270.606575)"><g><path d="M 1.78125 -2.109375 L 1.375 0 L 0.296875 0 L 2.3125 -10.5 L 4 -10.5 L 6.015625 0 L 4.84375 0 L 4.4375 -2.109375 Z M 1.9375 -3.125 L 4.28125 -3.125 L 3.09375 -9.1875 Z M 1.9375 -3.125 "/></g></g></g><g fill="#f6f6f6" fill-opacity="1"><g transform="translate(221.403891, 270.606575)"><g><path d="M 3.0625 -10.5 C 3.882812 -10.5 4.484375 -10.265625 4.859375 -9.796875 C 5.242188 -9.335938 5.4375 -8.703125 5.4375 -7.890625 L 5.4375 -2.59375 C 5.4375 -1.78125 5.242188 -1.144531 4.859375 -0.6875 C 4.484375 -0.226562 3.882812 0 3.0625 0 L 0.59375 0 L 0.59375 -10.5 Z M 3.046875 -1.0625 C 3.460938 -1.0625 3.773438 -1.1875 3.984375 -1.4375 C 4.191406 -1.695312 4.296875 -2.066406 4.296875 -2.546875 L 4.296875 -7.953125 C 4.296875 -8.429688 4.191406 -8.796875 3.984375 -9.046875 C 3.773438 -9.304688 3.457031 -9.4375 3.03125 -9.4375 L 1.765625 -9.4375 L 1.765625 -1.0625 Z M 3.046875 -1.0625 "/></g></g></g><g fill="#f6f6f6" fill-opacity="1"><g transform="translate(233.343889, 270.606575)"><g><path d="M 0.515625 -7.96875 C 0.515625 -8.78125 0.707031 -9.421875 1.09375 -9.890625 C 1.488281 -10.367188 2.09375 -10.609375 2.90625 -10.609375 C 3.71875 -10.609375 4.320312 -10.367188 4.71875 -9.890625 C 5.125 -9.421875 5.328125 -8.78125 5.328125 -7.96875 L 5.328125 -2.53125 C 5.328125 -1.726562 5.125 -1.085938 4.71875 -0.609375 C 4.320312 -0.128906 3.71875 0.109375 2.90625 0.109375 C 2.09375 0.109375 1.488281 -0.128906 1.09375 -0.609375 C 0.707031 -1.085938 0.515625 -1.726562 0.515625 -2.53125 Z M 1.671875 -2.46875 C 1.671875 -1.988281 1.769531 -1.613281 1.96875 -1.34375 C 2.175781 -1.082031 2.488281 -0.953125 2.90625 -0.953125 C 3.34375 -0.953125 3.660156 -1.082031 3.859375 -1.34375 C 4.054688 -1.613281 4.15625 -1.988281 4.15625 -2.46875 L 4.15625 -8.03125 C 4.15625 -8.507812 4.054688 -8.878906 3.859375 -9.140625 C 3.660156 -9.410156 3.34375 -9.546875 2.90625 -9.546875 C 2.488281 -9.546875 2.175781 -9.410156 1.96875 -9.140625 C 1.769531 -8.878906 1.671875 -8.507812 1.671875 -8.03125 Z M 1.671875 -2.46875 "/></g></g></g><g fill="#f6f6f6" fill-opacity="1"><g transform="translate(245.178887, 270.606575)"><g><path d="M 2.9375 -10.5 C 3.769531 -10.5 4.367188 -10.289062 4.734375 -9.875 C 5.097656 -9.46875 5.28125 -8.875 5.28125 -8.09375 L 5.28125 -7.25 C 5.28125 -6.664062 5.175781 -6.191406 4.96875 -5.828125 C 4.757812 -5.472656 4.425781 -5.222656 3.96875 -5.078125 C 4.445312 -4.941406 4.785156 -4.6875 4.984375 -4.3125 C 5.191406 -3.9375 5.296875 -3.460938 5.296875 -2.890625 L 5.296875 -1.265625 C 5.296875 -1.035156 5.304688 -0.8125 5.328125 -0.59375 C 5.347656 -0.375 5.40625 -0.175781 5.5 0 L 4.3125 0 C 4.25 -0.144531 4.203125 -0.304688 4.171875 -0.484375 C 4.140625 -0.660156 4.125 -0.925781 4.125 -1.28125 L 4.125 -2.921875 C 4.125 -3.515625 3.988281 -3.921875 3.71875 -4.140625 C 3.457031 -4.367188 3.082031 -4.484375 2.59375 -4.484375 L 1.765625 -4.484375 L 1.765625 0 L 0.59375 0 L 0.59375 -10.5 Z M 2.640625 -5.546875 C 3.109375 -5.546875 3.472656 -5.644531 3.734375 -5.84375 C 3.992188 -6.039062 4.125 -6.421875 4.125 -6.984375 L 4.125 -8 C 4.125 -8.476562 4.03125 -8.835938 3.84375 -9.078125 C 3.65625 -9.316406 3.34375 -9.4375 2.90625 -9.4375 L 1.765625 -9.4375 L 1.765625 -5.546875 Z M 2.640625 -5.546875 "/></g></g></g><g fill="#f6f6f6" fill-opacity="1"><g transform="translate(205.321925, 236.974993)"><g><path d="M 6.734375 0.09375 C 6.242188 0.03125 5.300781 0 3.90625 0 L 2.6875 0 L 2.6875 -20.296875 C 3.34375 -20.265625 4.0625 -20.25 4.84375 -20.25 C 5.625 -20.25 6.175781 -20.285156 6.5 -20.359375 L 11.609375 -11.671875 L 16.53125 -20.359375 C 16.851562 -20.285156 17.46875 -20.25 18.375 -20.25 C 19.289062 -20.25 20.078125 -20.265625 20.734375 -20.296875 L 20.734375 0 L 19.515625 0 C 18.117188 0 17.179688 0.03125 16.703125 0.09375 L 16.703125 -13.546875 L 11.71875 -4.640625 L 6.734375 -12.828125 Z M 6.734375 0.09375 "/></g></g></g><g fill="#f6f6f6" fill-opacity="1"><g transform="translate(228.746492, 236.974993)"><g><path d="M 14.15625 -20.3125 C 14.78125 -20.269531 15.300781 -20.25 15.71875 -20.25 L 16.984375 -20.25 C 17.410156 -20.25 17.859375 -20.285156 18.328125 -20.359375 L 18.328125 -7.78125 C 18.328125 -5.28125 17.570312 -3.273438 16.0625 -1.765625 C 14.625 -0.335938 12.828125 0.375 10.671875 0.375 C 8.304688 0.375 6.394531 -0.238281 4.9375 -1.46875 C 3.300781 -2.84375 2.484375 -4.828125 2.484375 -7.421875 L 2.484375 -20.3125 C 3.328125 -20.269531 4.117188 -20.25 4.859375 -20.25 C 5.609375 -20.25 6.226562 -20.285156 6.71875 -20.359375 L 6.71875 -7.234375 C 6.71875 -5.953125 7.109375 -4.957031 7.890625 -4.25 C 8.617188 -3.59375 9.53125 -3.265625 10.625 -3.265625 C 12.25 -3.265625 13.328125 -4.097656 13.859375 -5.765625 C 14.054688 -6.367188 14.15625 -7.109375 14.15625 -7.984375 Z M 14.15625 -20.3125 "/></g></g></g><g fill="#f6f6f6" fill-opacity="1"><g transform="translate(249.568329, 236.974993)"><g><path d="M 2.171875 -18.875 C 2.171875 -19.207031 2.15625 -19.664062 2.125 -20.25 L 16.5625 -20.25 L 7.703125 -3.65625 L 13.234375 -3.65625 C 14.671875 -3.65625 15.519531 -3.695312 15.78125 -3.78125 C 16.039062 -3.863281 16.242188 -3.941406 16.390625 -4.015625 L 16.390625 0.234375 C 15.953125 0.191406 15.59375 0.15625 15.3125 0.125 C 15.03125 0.09375 14.726562 0.0664062 14.40625 0.046875 C 13.9375 0.015625 13.015625 0 11.640625 0 L 1.40625 0 L 10.5625 -16.59375 L 5.765625 -16.59375 C 3.785156 -16.59375 2.53125 -16.484375 2 -16.265625 C 2.113281 -16.773438 2.171875 -17.492188 2.171875 -18.421875 Z M 2.171875 -18.875 "/></g></g></g><g fill="#f6f6f6" fill-opacity="1"><g transform="translate(267.665671, 236.974993)"><g><path d="M 12.796875 -3.65625 C 13.429688 -3.65625 13.867188 -3.710938 14.109375 -3.828125 L 14.171875 -3.828125 L 14.015625 0 L 2.625 0 L 2.625 -20.34375 C 2.894531 -20.320312 3.195312 -20.304688 3.53125 -20.296875 L 4.59375 -20.28125 C 5.300781 -20.257812 6.070312 -20.25 6.90625 -20.25 C 9.226562 -20.25 11.53125 -20.285156 13.8125 -20.359375 C 13.695312 -19.472656 13.640625 -18.28125 13.640625 -16.78125 C 13.640625 -16.625 13.648438 -16.503906 13.671875 -16.421875 L 13.640625 -16.375 C 13.109375 -16.53125 12.359375 -16.609375 11.390625 -16.609375 L 6.59375 -16.609375 L 6.59375 -12.71875 L 10.203125 -12.71875 C 11.316406 -12.71875 11.984375 -12.75 12.203125 -12.8125 L 12.25 -9.0625 C 11.757812 -9.101562 11.128906 -9.125 10.359375 -9.125 L 6.59375 -9.125 L 6.59375 -3.65625 Z M 12.796875 -3.65625 "/></g></g></g><g fill="#f6f6f6" fill-opacity="1"><g transform="translate(283.282049, 236.974993)"><g><path d="M 6.5 0.09375 C 5.800781 0.03125 4.910156 0 3.828125 0 L 2.625 0 L 2.625 -20.296875 L 3.234375 -20.28125 C 3.648438 -20.257812 3.96875 -20.25 4.1875 -20.25 L 4.625 -20.25 C 5.519531 -20.25 6.144531 -20.285156 6.5 -20.359375 L 6.5 -11.765625 L 12.65625 -20.296875 C 13.3125 -20.265625 13.863281 -20.25 14.3125 -20.25 L 15.140625 -20.25 C 16.191406 -20.25 16.9375 -20.285156 17.375 -20.359375 L 11.5 -12.6875 L 17.296875 -1.21875 C 17.535156 -0.65625 17.757812 -0.25 17.96875 0 L 17.046875 0 C 14.898438 0 13.566406 0.0390625 13.046875 0.125 C 12.929688 -0.550781 12.78125 -1.144531 12.59375 -1.65625 L 8.703125 -9.0625 L 6.5 -6.171875 Z M 6.5 0.09375 "/></g></g></g><g fill="#f6f6f6" fill-opacity="1"><g transform="translate(301.440273, 236.974993)"><g><path d="M 4.09375 0.125 C 3.21875 0.0390625 2.195312 0 1.03125 0 L -0.171875 0 L 6.453125 -18.546875 C 6.742188 -19.378906 6.890625 -19.863281 6.890625 -20 C 6.890625 -20.144531 6.882812 -20.234375 6.875 -20.265625 L 6.890625 -20.296875 C 7.554688 -20.265625 8.257812 -20.25 9 -20.25 C 9.601562 -20.25 10.332031 -20.257812 11.1875 -20.28125 L 11.203125 -20.25 C 11.179688 -20.207031 11.171875 -20.148438 11.171875 -20.078125 C 11.171875 -19.878906 11.320312 -19.363281 11.625 -18.53125 L 18.390625 0.046875 C 18.179688 0.0351562 17.941406 0.03125 17.671875 0.03125 C 17.671875 0.03125 17.40625 0.0195312 16.875 0 C 16.625 0 16.394531 0 16.1875 0 L 13.828125 0 L 12.40625 -4.390625 L 5.53125 -4.390625 Z M 11.21875 -8.03125 L 8.921875 -15.109375 L 6.6875 -8.03125 Z M 11.21875 -8.03125 "/></g></g></g></svg>